# xmcd
#
# Track frame offsets: 
#        182
#        11980
#        21937
#        33512
#        44235
#        56695
#        66935
#        77780
#        90287
#        104875
#        122055
#        134512
#        144325
#        154990
#        166442
#        178727
#        189470
#        200255
#        213192
#        224105
#        235277
#        244802
#        256725
#        267092
#        278580
#
# Disc length: 3828 seconds
#
# Revision: 6
# Processed by: cddbd v1.5.2PL0 Copyright (c) Steve Scherf et al.
# Submitted via: ExactAudioCopyFreeDBPlugin 1.0
#
DISCID=7d0ef219
DTITLE=Various Artist - Country Giants Volume 2
DYEAR=1900
DGENRE=Country
TTITLE0=Willie Nelson - Is there something on your mind
TTITLE1=Buck Owens - Rhythm 'n' booze
TTITLE2=Johnny Lee - Candy store
TTITLE3=Patsy Cline - Stop, look and listen
TTITLE4=Faron Young - Four in the morning
TTITLE5=Faron Young - Hello walls
TTITLE6=Donna Fargo - Wishful thinking
TTITLE7=Kenny Rogers - Rueben James
TTITLE8=Anne Murray - Both sides now
TTITLE9=Johnny Paycheck - Billy Jack Washburn
TTITLE10=Willie Nelson - The shelter of my arms
TTITLE11=Carl Perkins - This old house
TTITLE12=Patsy Cline - Then You'll Know
TTITLE13=Dolly Parton - Letter to heaven
TTITLE14=Stonewall Jackson - Ol' blue
TTITLE15=Waylon Jennings - Sally was a good old girl
TTITLE16=Patsy Cline - Honky tonk merry go round
TTITLE17=Frankie Lane - Moonlight gambler
TTITLE18=Faron Young - Wine me up
TTITLE19=Hank Locklin - Send me the pillow you dream on
TTITLE20=Willie Nelson - Building heartaches
TTITLE21=Billie Jo Spears - Ease the want in me
TTITLE22=Dave Dudley - Sad and lonely days
TTITLE23=Guy Mitchell - Heartaches by the number
TTITLE24=Conway Twitty - Blue is the way I feel
EXTD=Les chanteurs comme artiste, les titres comme nom de pistes, c'es
EXTD=t plus logique
EXTT0=
EXTT1=
EXTT2=
EXTT3=
EXTT4=
EXTT5=
EXTT6=
EXTT7=
EXTT8=
EXTT9=
EXTT10=
EXTT11=
EXTT12=
EXTT13=
EXTT14=
EXTT15=
EXTT16=
EXTT17=
EXTT18=
EXTT19=
EXTT20=
EXTT21=
EXTT22=
EXTT23=
EXTT24=
PLAYORDER=
